<mxfile host="app.diagrams.net" modified="2022-01-06T11:32:17.072Z" agent="5.0 (X11)" etag="yGCET8f3Z1E8lWRUT0jF" version="16.2.2" type="gitlab">
  <diagram name="Page-1" id="929967ad-93f9-6ef4-fab6-5d389245f69c">
    <mxGraphModel dx="914" dy="506" grid="1" gridSize="10" guides="1" tooltips="1" connect="1" arrows="1" fold="1" page="1" pageScale="1.5" pageWidth="1169" pageHeight="826" background="none" math="0" shadow="0">
      <root>
        <mxCell id="0" style=";html=1;" />
        <mxCell id="1" style=";html=1;" parent="0" />
        <mxCell id="9g8wFQ5CI78rzDATGCAP-6" value="IPAddress" style="swimlane;fontStyle=3;align=center;verticalAlign=top;childLayout=stackLayout;horizontal=1;startSize=26;horizontalStack=0;resizeParent=1;resizeParentMax=0;resizeLast=0;collapsible=1;marginBottom=0;" parent="1" vertex="1">
          <mxGeometry x="780" y="240" width="280" height="240" as="geometry" />
        </mxCell>
        <mxCell id="9g8wFQ5CI78rzDATGCAP-7" value="# family: sa_family_t const&#xa;# representation: std::string&#xa;# cStyle: void *&#xa;" style="text;strokeColor=none;fillColor=none;align=left;verticalAlign=top;spacingLeft=4;spacingRight=4;overflow=hidden;rotatable=0;points=[[0,0.5],[1,0.5]];portConstraint=eastwest;" parent="9g8wFQ5CI78rzDATGCAP-6" vertex="1">
          <mxGeometry y="26" width="280" height="54" as="geometry" />
        </mxCell>
        <mxCell id="9g8wFQ5CI78rzDATGCAP-8" value="" style="line;strokeWidth=1;fillColor=none;align=left;verticalAlign=middle;spacingTop=-1;spacingLeft=3;spacingRight=3;rotatable=0;labelPosition=right;points=[];portConstraint=eastwest;" parent="9g8wFQ5CI78rzDATGCAP-6" vertex="1">
          <mxGeometry y="80" width="280" height="8" as="geometry" />
        </mxCell>
        <mxCell id="9g8wFQ5CI78rzDATGCAP-9" value="+ IPAddress()&#xa;+ IPAddress(std::string const &amp;, sa_family_t type)&#xa;+ IPAddress(IPAddress const &amp;)&#xa;+ ~IPAddress()&#xa;&#xa;+ getFamily(): sa_family_t&#xa;+ getRepresentation(): std::string&#xa;+ getCStyle(): void * const&#xa;&#xa;- operator=(IPAddress const &amp;): IPAddress &amp;" style="text;strokeColor=none;fillColor=none;align=left;verticalAlign=top;spacingLeft=4;spacingRight=4;overflow=hidden;rotatable=0;points=[[0,0.5],[1,0.5]];portConstraint=eastwest;fontStyle=2" parent="9g8wFQ5CI78rzDATGCAP-6" vertex="1">
          <mxGeometry y="88" width="280" height="152" as="geometry" />
        </mxCell>
        <mxCell id="9g8wFQ5CI78rzDATGCAP-27" value="" style="endArrow=block;endSize=16;endFill=0;html=1;rounded=0;exitX=0.5;exitY=0;exitDx=0;exitDy=0;entryX=0;entryY=0.5;entryDx=0;entryDy=0;" parent="1" target="9g8wFQ5CI78rzDATGCAP-9" edge="1">
          <mxGeometry width="160" relative="1" as="geometry">
            <mxPoint x="620" y="525" as="sourcePoint" />
            <mxPoint x="750" y="450" as="targetPoint" />
            <Array as="points">
              <mxPoint x="620" y="419" />
              <mxPoint x="620" y="404" />
            </Array>
          </mxGeometry>
        </mxCell>
        <mxCell id="9g8wFQ5CI78rzDATGCAP-28" value="" style="endArrow=block;endSize=16;endFill=0;html=1;rounded=0;entryX=1;entryY=0.5;entryDx=0;entryDy=0;exitX=0.5;exitY=0;exitDx=0;exitDy=0;" parent="1" target="9g8wFQ5CI78rzDATGCAP-9" edge="1">
          <mxGeometry width="160" relative="1" as="geometry">
            <mxPoint x="1220" y="525" as="sourcePoint" />
            <mxPoint x="1380" y="419" as="targetPoint" />
            <Array as="points">
              <mxPoint x="1220" y="404" />
            </Array>
          </mxGeometry>
        </mxCell>
        <mxCell id="wqd82JeTupFohGKB9hLJ-1" value="AddressInfo" style="swimlane;fontStyle=1;align=center;verticalAlign=top;childLayout=stackLayout;horizontal=1;startSize=26;horizontalStack=0;resizeParent=1;resizeParentMax=0;resizeLast=0;collapsible=1;marginBottom=0;" parent="1" vertex="1">
          <mxGeometry x="40" y="240" width="400" height="230" as="geometry" />
        </mxCell>
        <mxCell id="wqd82JeTupFohGKB9hLJ-2" value="+ ipAddress: IPAddress *&#xa;+ sockType: int&#xa;+ protocol: int&#xa;+ service: in_port_t&#xa;+ flags: int" style="text;strokeColor=none;fillColor=none;align=left;verticalAlign=top;spacingLeft=4;spacingRight=4;overflow=hidden;rotatable=0;points=[[0,0.5],[1,0.5]];portConstraint=eastwest;direction=south;" parent="wqd82JeTupFohGKB9hLJ-1" vertex="1">
          <mxGeometry y="26" width="400" height="84" as="geometry" />
        </mxCell>
        <mxCell id="wqd82JeTupFohGKB9hLJ-3" value="" style="line;strokeWidth=1;fillColor=none;align=left;verticalAlign=middle;spacingTop=-1;spacingLeft=3;spacingRight=3;rotatable=0;labelPosition=right;points=[];portConstraint=eastwest;" parent="wqd82JeTupFohGKB9hLJ-1" vertex="1">
          <mxGeometry y="110" width="400" height="8" as="geometry" />
        </mxCell>
        <mxCell id="wqd82JeTupFohGKB9hLJ-4" value="+ AddressInfo()&#xa;+ AddressInfo(char const *, char const *, AddressInfo const &amp;)&#xa;+ AddressInfo(int sockType, int protocol, int flags)&#xa;+ AddressInfo(AddressInfo const &amp;)&#xa;+ ~AddressInfo()&#xa;&#xa;+ operator=(AddressInfo const &amp;)" style="text;strokeColor=none;fillColor=none;align=left;verticalAlign=top;spacingLeft=4;spacingRight=4;overflow=hidden;rotatable=0;points=[[0,0.5],[1,0.5]];portConstraint=eastwest;fontStyle=0" parent="wqd82JeTupFohGKB9hLJ-1" vertex="1">
          <mxGeometry y="118" width="400" height="112" as="geometry" />
        </mxCell>
        <mxCell id="wqd82JeTupFohGKB9hLJ-8" value="" style="endArrow=diamondThin;endFill=1;endSize=24;html=1;rounded=0;entryX=0.835;entryY=-0.007;entryDx=0;entryDy=0;entryPerimeter=0;" parent="1" target="wqd82JeTupFohGKB9hLJ-2" edge="1">
          <mxGeometry width="160" relative="1" as="geometry">
            <mxPoint x="780" y="338" as="sourcePoint" />
            <mxPoint x="420" y="340" as="targetPoint" />
            <Array as="points" />
          </mxGeometry>
        </mxCell>
        <mxCell id="xDVPMbtAb4q54fRRfa8R-3" value="IPv4Address" style="swimlane;fontStyle=1;align=center;verticalAlign=top;childLayout=stackLayout;horizontal=1;startSize=26;horizontalStack=0;resizeParent=1;resizeParentMax=0;resizeLast=0;collapsible=1;marginBottom=0;" parent="1" vertex="1">
          <mxGeometry x="480" y="525" width="280" height="200" as="geometry" />
        </mxCell>
        <mxCell id="xDVPMbtAb4q54fRRfa8R-4" value="- address: struct in_addr" style="text;strokeColor=none;fillColor=none;align=left;verticalAlign=top;spacingLeft=4;spacingRight=4;overflow=hidden;rotatable=0;points=[[0,0.5],[1,0.5]];portConstraint=eastwest;" parent="xDVPMbtAb4q54fRRfa8R-3" vertex="1">
          <mxGeometry y="26" width="280" height="26" as="geometry" />
        </mxCell>
        <mxCell id="xDVPMbtAb4q54fRRfa8R-5" value="" style="line;strokeWidth=1;fillColor=none;align=left;verticalAlign=middle;spacingTop=-1;spacingLeft=3;spacingRight=3;rotatable=0;labelPosition=right;points=[];portConstraint=eastwest;" parent="xDVPMbtAb4q54fRRfa8R-3" vertex="1">
          <mxGeometry y="52" width="280" height="8" as="geometry" />
        </mxCell>
        <mxCell id="xDVPMbtAb4q54fRRfa8R-6" value="- IPv4Address()&#xa;+ IPv4Address(std::string const &amp;)&#xa;+ IPv4Address(struct in_addr address)&#xa;+ IPv4Address(IPv4Address &amp;)&#xa;+ ~IPv4Address()&#xa;&#xa;+ clone(): IPAddress *&#xa;&#xa;+ operator=(IPv4Address const &amp;): IPv4Address &amp;&#xa;" style="text;strokeColor=none;fillColor=none;align=left;verticalAlign=top;spacingLeft=4;spacingRight=4;overflow=hidden;rotatable=0;points=[[0,0.5],[1,0.5]];portConstraint=eastwest;" parent="xDVPMbtAb4q54fRRfa8R-3" vertex="1">
          <mxGeometry y="60" width="280" height="140" as="geometry" />
        </mxCell>
        <mxCell id="xDVPMbtAb4q54fRRfa8R-7" value="IPv6Address" style="swimlane;fontStyle=1;align=center;verticalAlign=top;childLayout=stackLayout;horizontal=1;startSize=26;horizontalStack=0;resizeParent=1;resizeParentMax=0;resizeLast=0;collapsible=1;marginBottom=0;" parent="1" vertex="1">
          <mxGeometry x="1080" y="525" width="280" height="200" as="geometry" />
        </mxCell>
        <mxCell id="xDVPMbtAb4q54fRRfa8R-8" value="- address: struct in6_addr" style="text;strokeColor=none;fillColor=none;align=left;verticalAlign=top;spacingLeft=4;spacingRight=4;overflow=hidden;rotatable=0;points=[[0,0.5],[1,0.5]];portConstraint=eastwest;" parent="xDVPMbtAb4q54fRRfa8R-7" vertex="1">
          <mxGeometry y="26" width="280" height="26" as="geometry" />
        </mxCell>
        <mxCell id="xDVPMbtAb4q54fRRfa8R-9" value="" style="line;strokeWidth=1;fillColor=none;align=left;verticalAlign=middle;spacingTop=-1;spacingLeft=3;spacingRight=3;rotatable=0;labelPosition=right;points=[];portConstraint=eastwest;" parent="xDVPMbtAb4q54fRRfa8R-7" vertex="1">
          <mxGeometry y="52" width="280" height="8" as="geometry" />
        </mxCell>
        <mxCell id="xDVPMbtAb4q54fRRfa8R-10" value="- IPv6Address()&#xa;+ IPv6Address(std::string const &amp;)&#xa;+ IPv6Address(struct in6_addr address)&#xa;+ IPv6Address(IPv4Address &amp;)&#xa;+ ~IPv6Address()&#xa;&#xa;+ clone(): IPAddress *&#xa;&#xa;+ operator=(IPv4Address const &amp;): IPv4Address &amp;&#xa;" style="text;strokeColor=none;fillColor=none;align=left;verticalAlign=top;spacingLeft=4;spacingRight=4;overflow=hidden;rotatable=0;points=[[0,0.5],[1,0.5]];portConstraint=eastwest;" parent="xDVPMbtAb4q54fRRfa8R-7" vertex="1">
          <mxGeometry y="60" width="280" height="140" as="geometry" />
        </mxCell>
      </root>
    </mxGraphModel>
  </diagram>
</mxfile>
